HIERARCHY
ROOT marker_3
{
  OFFSET 0.000000 0.000000 0.000000
  CHANNELS 6 Xposition Yposition Zposition Xrotation Yrotation Zrotation 
  JOINT marker_3_2
  {
    OFFSET 0.000000 0.000000 9.603829
    CHANNELS 3 Xrotation Yrotation Zrotation 
    JOINT marker_2_1
    {
      OFFSET 0.000000 0.000000 7.335344
      CHANNELS 3 Xrotation Yrotation Zrotation 
      End Site
      {
        OFFSET 0.000000 0.000000 3.693331
      }
    }
    JOINT connector_2_12
    {
      OFFSET 0.000000 0.000000 0.000000
      CHANNELS 3 Yrotation Zrotation Xrotation 
      JOINT marker_2_12
      {
        OFFSET 7.157993 0.000000 0.000000
        CHANNELS 3 Yrotation Zrotation Xrotation 
        JOINT marker_12_13
        {
          OFFSET 4.375671 0.000000 0.000000
          CHANNELS 3 Zrotation Xrotation Yrotation 
          JOINT child_marker_12_13
          {
            OFFSET 5.054970 0.000000 0.000000
            CHANNELS 3 Zrotation Xrotation Yrotation 
            End Site
            {
              OFFSET 0.000000 0.000000 3.000000
            }
          }
        }
      }
    }
    JOINT connector_2_9
    {
      OFFSET 0.000000 0.000000 0.000000
      CHANNELS 3 Yrotation Zrotation Xrotation 
      JOINT marker_2_9
      {
        OFFSET -5.160612 -0.000000 -0.000000
        CHANNELS 3 Yrotation Zrotation Xrotation 
        JOINT marker_9_10
        {
          OFFSET -4.975909 -0.000000 -0.000000
          CHANNELS 3 Zrotation Xrotation Yrotation 
          JOINT child_marker_9_10
          {
            OFFSET -6.303883 -0.000000 -0.000000
            CHANNELS 3 Zrotation Xrotation Yrotation 
            End Site
            {
              OFFSET 0.000000 0.000000 3.000000
            }
          }
        }
      }
    }
  }
  JOINT connector_3_4
  {
    OFFSET 0.000000 0.000000 0.000000
    CHANNELS 3 Xrotation Yrotation Zrotation 
    JOINT marker_3_4
    {
      OFFSET -0.000000 -0.000000 -11.915986
      CHANNELS 3 Xrotation Yrotation Zrotation 
      JOINT marker_4_5
      {
        OFFSET -0.000000 -0.000000 -10.687113
        CHANNELS 3 Xrotation Yrotation Zrotation 
        JOINT marker_5_6
        {
          OFFSET -0.000000 -0.000000 -11.245878
          CHANNELS 3 Xrotation Yrotation Zrotation 
          JOINT marker_6_7
          {
            OFFSET -0.000000 -0.000000 -12.307624
            CHANNELS 3 Xrotation Yrotation Zrotation 
            End Site
            {
              OFFSET -0.000000 -0.000000 -13.759849
            }
          }
        }
      }
      JOINT connector_4_19
      {
        OFFSET 0.000000 0.000000 0.000000
        CHANNELS 3 Yrotation Zrotation Xrotation 
        JOINT marker_4_19
        {
          OFFSET 3.799193 0.000000 0.000000
          CHANNELS 3 Yrotation Zrotation Xrotation 
          JOINT marker_19_20
          {
            OFFSET 5.611681 0.000000 0.000000
            CHANNELS 3 Zrotation Xrotation Yrotation 
            JOINT marker_20_21
            {
              OFFSET 6.675463 0.000000 0.000000
              CHANNELS 3 Yrotation Zrotation Xrotation 
              End Site
              {
                OFFSET 4.445951 0.000000 0.000000
              }
            }
          }
        }
      }
      JOINT connector_4_15
      {
        OFFSET 0.000000 0.000000 0.000000
        CHANNELS 3 Yrotation Zrotation Xrotation 
        JOINT marker_4_15
        {
          OFFSET -4.567699 -0.000000 -0.000000
          CHANNELS 3 Yrotation Zrotation Xrotation 
          JOINT marker_15_16
          {
            OFFSET -5.685471 -0.000000 -0.000000
            CHANNELS 3 Zrotation Xrotation Yrotation 
            JOINT marker_16_17
            {
              OFFSET -6.071024 -0.000000 -0.000000
              CHANNELS 3 Yrotation Zrotation Xrotation 
              End Site
              {
                OFFSET -4.087371 -0.000000 -0.000000
              }
            }
          }
        }
      }
    }
  }
}
MOTION
Frames: 5
Frame Time: 0.008333
-18.252774 15.168660 81.912660 2.796238 -21.104254 0.000000 -21.303937 16.059538 0.000000 22.255616 -2.917855 -0.000000 -13.605955 -32.091515 0.000000 52.467500 61.077760 -60.686469 -112.900540 -0.000000 -0.000000 79.872017 41.344536 -16.227447 -42.928501 60.600150 -0.000000 -9.777687 -23.346536 0.662630 65.889973 -0.000000 -0.000000 -111.634637 7.508011 30.971313 -13.615886 4.972591 0.000000 -1.778428 6.056910 -0.000000 -4.640698 -3.941778 -0.000000 -0.507446 4.832256 0.000000 10.710427 -0.236866 -0.000000 7.672061 -35.949940 0.000000 -14.547661 2.645320 60.197273 -73.463637 -0.000000 -0.000000 -124.332654 42.704138 106.027824 -25.411693 25.697828 0.000000 -6.462623 -20.486178 90.433131 53.249203 -0.000000 -0.000000 50.727321 -18.456417 63.529404 
-18.164693 15.149423 82.298925 2.784644 -21.934028 0.000000 -21.272234 16.462930 -0.000000 22.287990 -2.086366 -0.000000 -14.115640 -33.093913 0.000000 44.183684 60.768646 -57.825877 -111.554145 -0.000000 -0.000000 79.857769 43.902711 -11.421830 -44.187218 59.925567 -0.000000 -9.550921 -23.486507 2.235131 65.740874 -0.000000 -0.000000 -110.756057 6.524886 30.716907 -13.534747 6.043823 -0.000000 -1.828520 6.397418 0.000000 -4.704920 -4.370201 -0.000000 -0.530748 4.624001 0.000000 10.679685 -0.284727 0.000000 8.647195 -35.657981 0.000000 -14.140021 2.342904 61.154181 -73.113419 -0.000000 -0.000000 -125.127880 41.241413 106.646920 -24.518795 25.612538 0.000000 -4.996804 -21.439785 89.549861 56.801278 -0.000000 -0.000000 47.468811 -17.031743 63.109715 
-18.084092 15.126223 82.676613 2.773136 -22.712475 0.000000 -21.269276 16.822100 -0.000000 22.341174 -1.286355 -0.000000 -14.585256 -34.124641 -0.000000 35.132231 59.662411 -53.642331 -109.245642 -0.000000 -0.000000 79.995747 46.162190 -7.350472 -45.344882 59.250818 -0.000000 -9.327371 -23.629845 3.647011 65.523975 -0.000000 -0.000000 -109.835817 5.655893 30.546152 -13.448789 7.054204 0.000000 -1.915465 6.765267 -0.000000 -4.738535 -4.850256 0.000000 -0.531921 4.440162 -0.000000 10.635831 -0.293289 -0.000000 9.620919 -35.403138 -0.000000 -13.767792 2.136827 62.109954 -72.724002 -0.000000 -0.000000 -125.806947 39.890626 107.117871 -23.363067 25.568214 0.000000 -3.076987 -22.540069 88.929245 61.432340 -0.000000 -0.000000 45.003362 -16.896876 63.056620 
-18.013223 15.101337 83.044108 2.773820 -23.419874 0.000000 -21.321958 17.106832 -0.000000 22.426483 -0.528212 0.000000 -15.058479 -35.145116 -0.000000 26.125031 57.676245 -48.832400 -105.987307 -0.000000 -0.000000 80.255458 48.103566 -4.098674 -46.415236 58.571335 0.000000 -9.120526 -23.790332 4.906242 65.267066 -0.000000 -0.000000 -108.896065 4.895280 30.498273 -13.366490 7.978453 -0.000000 -2.050021 7.174065 -0.000000 -4.731725 -5.395168 -0.000000 -0.512665 4.275910 -0.000000 10.581944 -0.266999 -0.000000 10.578295 -35.192975 -0.000000 -13.418277 2.049292 63.059444 -72.305719 -0.000000 -0.000000 -126.358406 38.682557 107.427764 -21.996947 25.623780 -0.000000 -0.474611 -23.829319 88.758840 67.142985 -0.000000 -0.000000 43.507592 -17.966491 63.267345 
-17.953971 15.076613 83.400168 2.798976 -24.037716 0.000000 -21.456585 17.284675 -0.000000 22.557741 0.185128 -0.000000 -15.567808 -36.130419 -0.000000 17.886696 54.850373 -44.058081 -101.820211 -0.000000 -0.000000 80.554369 49.695307 -1.662434 -47.405513 57.873995 -0.000000 -8.942726 -23.978627 6.040623 65.003007 -0.000000 -0.000000 -107.957975 4.223213 30.596983 -13.305218 8.803630 -0.000000 -2.225517 7.619292 0.000000 -4.682049 -6.009562 -0.000000 -0.476897 4.125166 0.000000 10.523875 -0.214745 -0.000000 11.497431 -34.999202 -0.000000 -13.068252 2.072573 63.978932 -71.857289 -0.000000 -0.000000 -126.775495 37.642969 107.557737 -20.520163 25.801731 0.000000 3.131443 -25.255598 89.217985 73.908235 -0.000000 -0.000000 43.099421 -20.081262 63.736625 
